<svg width="40" height="40" viewBox="0 0 40 40" fill="none" xmlns="http://www.w3.org/2000/svg">
<circle cx="20" cy="20" r="20" fill="#5D5FEF"/>
<path d="M19.9999 13.8291C19.0919 12.9942 17.9034 12.5308 16.6699 12.5308C16.017 12.5314 15.3707 12.6612 14.7682 12.9127C14.1657 13.1641 13.6188 13.5322 13.1591 13.9958C11.1982 15.9649 11.1991 19.0449 13.1607 21.0058L19.2707 27.1158C19.4124 27.3649 19.6857 27.5258 19.9999 27.5258C20.1289 27.5245 20.2558 27.493 20.3704 27.4338C20.4851 27.3746 20.5842 27.2894 20.6599 27.1849L26.8391 21.0058C28.8007 19.0441 28.8007 15.9649 26.8374 13.9924C26.3779 13.5297 25.8315 13.1623 25.2295 12.9115C24.6276 12.6607 23.982 12.5313 23.3299 12.5308C22.0964 12.531 20.908 12.9943 19.9999 13.8291ZM25.6591 15.1708C26.9616 16.4799 26.9624 18.5249 25.6607 19.8274L19.9999 25.4883L14.3391 19.8274C13.0374 18.5249 13.0382 16.4799 14.3374 15.1741C14.9707 14.5441 15.7991 14.1974 16.6699 14.1974C17.5407 14.1974 18.3657 14.5441 18.9941 15.1724L19.4107 15.5891C19.4881 15.6666 19.5799 15.728 19.681 15.7699C19.7821 15.8118 19.8905 15.8334 19.9999 15.8334C20.1093 15.8334 20.2177 15.8118 20.3188 15.7699C20.4199 15.728 20.5117 15.6666 20.5891 15.5891L21.0057 15.1724C22.2657 13.9149 24.4007 13.9183 25.6591 15.1708Z" fill="white"/>
</svg>
