<svg width="187" height="98" viewBox="0 0 187 98" fill="none" xmlns="http://www.w3.org/2000/svg">
<g clip-path="url(#clip0_4724_13319)">
<ellipse cx="47.4963" cy="49" rx="39.0412" ry="39" stroke="#3683FC" stroke-width="3"/>
<ellipse cx="47.4959" cy="34.75" rx="4.22739" ry="4.25" fill="#3683FC"/>
<path d="M39.7157 49C39.545 46.9816 39.4757 45.8069 39.6166 44.7359C39.6677 44.3469 39.797 43.9721 39.9781 43.624C41.1835 41.3068 42.253 40.8792 44.0171 40" stroke="#3683FC" stroke-width="3.5" stroke-linejoin="round"/>
<path d="M55.2959 49C55.4501 46.9488 55.5112 45.7689 55.3778 44.6838C55.3342 44.3299 55.2291 43.9866 55.0804 43.6625C54.0016 41.3115 53.0492 40.884 51.4725 40" stroke="#3683FC" stroke-width="3.5" stroke-linejoin="round"/>
<ellipse cx="39.7892" cy="49.25" rx="1.24335" ry="1.25" fill="#3683FC"/>
<ellipse cx="55.2033" cy="49.25" rx="1.24335" ry="1.25" fill="#3683FC"/>
<path d="M44.6415 67.25C45.2005 67.25 45.7178 67.099 46.1027 66.8417C46.4859 66.5856 46.7615 66.2045 46.7615 65.75C46.7615 65.2955 46.4859 64.9144 46.1027 64.6583C45.7178 64.401 45.2005 64.25 44.6415 64.25C44.0825 64.25 43.5651 64.401 43.1803 64.6583C42.7971 64.9144 42.5215 65.2955 42.5215 65.75C42.5215 66.2045 42.7971 66.5856 43.1803 66.8417C43.5651 67.099 44.0825 67.25 44.6415 67.25Z" fill="#3683FC" stroke="#3683FC" stroke-width="0.5"/>
<path d="M50.6093 67.25C51.1683 67.25 51.6856 67.099 52.0705 66.8417C52.4537 66.5856 52.7293 66.2045 52.7293 65.75C52.7293 65.2955 52.4537 64.9144 52.0705 64.6583C51.6856 64.401 51.1683 64.25 50.6093 64.25C50.0503 64.25 49.5329 64.401 49.148 64.6583C48.7648 64.9144 48.4893 65.2955 48.4893 65.75C48.4893 66.2045 48.7648 66.5856 49.148 66.8417C49.5329 67.099 50.0503 67.25 50.6093 67.25Z" fill="#3683FC" stroke="#3683FC" stroke-width="0.5"/>
<path d="M44.7435 65.5085L44.4287 60.2442C44.4287 60.2442 44.5131 43.487 44.6717 53.2485" stroke="#3683FC" stroke-width="5"/>
<path d="M50.6581 65.5084L50.8815 60.2395C50.8815 60.2395 50.5062 43.4862 50.5171 53.2491" stroke="#3683FC" stroke-width="5"/>
<ellipse cx="47.4977" cy="48.5044" rx="5.61" ry="8.648" fill="#3683FC"/>
<path d="M43.0225 40.2002L46.5033 40.6311C46.8744 40.677 47.2494 40.6812 47.6214 40.6435L51.9985 40.2002" stroke="#3683FC" stroke-width="3"/>
</g>
<g clip-path="url(#clip1_4724_13319)">
<ellipse cx="46.2524" cy="49.25" rx="42.2739" ry="43.75" stroke="#3683FC" stroke-width="3"/>
</g>
<g clip-path="url(#clip2_4724_13319)">
<ellipse cx="47.2479" cy="49" rx="33.8191" ry="34.5" stroke="#3683FC" stroke-width="3"/>
</g>
<path d="M47.2471 93C64.654 93 76.8388 83.6386 84.0503 72" stroke="#3683FC" stroke-width="3"/>
<path d="M86.0399 49C82.9981 39.1788 72.8588 14.5 46.75 14.5" stroke="#3683FC" stroke-width="3"/>
<path d="M66.6436 15C76.2913 20.3194 84.1618 32.9846 87.2084 39.3172C90.2551 45.6498 95.0789 62.3678 102.949 72.5" stroke="#3683FC" stroke-width="3"/>
<g clip-path="url(#clip3_4724_13319)">
<ellipse cx="139.504" cy="49" rx="39.0412" ry="39" transform="rotate(-180 139.504 49)" stroke="#3683FC" stroke-width="3"/>
</g>
<g clip-path="url(#clip4_4724_13319)">
<ellipse cx="140.748" cy="48.75" rx="42.2739" ry="43.75" transform="rotate(-180 140.748 48.75)" stroke="#3683FC" stroke-width="3"/>
</g>
<g clip-path="url(#clip5_4724_13319)">
<ellipse cx="139.752" cy="49" rx="33.8192" ry="34.5" transform="rotate(-180 139.752 49)" stroke="#3683FC" stroke-width="3"/>
</g>
<path d="M139.753 5C122.346 5 110.161 14.3614 102.95 26" stroke="#3683FC" stroke-width="3"/>
<path d="M100.96 49C104.002 58.8212 114.141 83.5 140.25 83.5" stroke="#3683FC" stroke-width="3"/>
<path d="M120.356 83C110.709 77.6806 102.838 65.0154 99.7916 58.6828C96.7449 52.3502 91.9211 35.6322 84.0506 25.5" stroke="#3683FC" stroke-width="3"/>
<path d="M154.658 37.1864C153.811 36.3347 152.806 35.6591 151.699 35.1982C150.593 34.7372 149.407 34.5 148.209 34.5C147.011 34.5 145.825 34.7372 144.719 35.1982C143.612 35.6591 142.607 36.3347 141.76 37.1864L140.003 38.953L138.246 37.1864C136.535 35.4669 134.216 34.5009 131.797 34.5009C129.378 34.5009 127.058 35.4669 125.348 37.1864C123.638 38.9059 122.677 41.238 122.677 43.6697C122.677 46.1014 123.638 48.4336 125.348 50.153L127.105 51.9197L140.003 64.8864L152.901 51.9197L154.658 50.153C155.505 49.3018 156.177 48.2911 156.636 47.1786C157.094 46.0662 157.33 44.8739 157.33 43.6697C157.33 42.4656 157.094 41.2732 156.636 40.1608C156.177 39.0484 155.505 38.0376 154.658 37.1864Z" fill="#3683FC" stroke="#3683FC" stroke-width="2" stroke-linecap="round" stroke-linejoin="round"/>
<defs>
<clipPath id="clip0_4724_13319">
<rect width="67.6383" height="94.5" fill="white" transform="translate(0 1.5)"/>
</clipPath>
<clipPath id="clip1_4724_13319">
<rect width="47.7447" height="96.5" fill="white"/>
</clipPath>
<clipPath id="clip2_4724_13319">
<rect width="36.8032" height="76.5" fill="white" transform="matrix(-1 0 0 1 47.7451 11)"/>
</clipPath>
<clipPath id="clip3_4724_13319">
<rect width="67.6383" height="94.5" fill="white" transform="translate(187 96.5) rotate(-180)"/>
</clipPath>
<clipPath id="clip4_4724_13319">
<rect width="47.7447" height="96.5" fill="white" transform="translate(187 98) rotate(-180)"/>
</clipPath>
<clipPath id="clip5_4724_13319">
<rect width="36.8032" height="76.5" fill="white" transform="matrix(1 0 0 -1 139.255 87)"/>
</clipPath>
</defs>
</svg>
